<svg width="393" height="40" viewBox="0 0 393 40" fill="none" xmlns="http://www.w3.org/2000/svg">
<rect width="393" height="40" fill="white"/>
<path d="M155 37H60V43H155V37Z" fill="#FFDA49" mask="url(#path-1-inside-1_516_1964)"/>
<path d="M88.4811 15.832V18.808H90.4971V20.504H88.4811V23.736H86.2891V15.832H88.4811ZM78.8971 24.568H88.4811V26.216H81.1851V28.28C81.1851 28.4933 81.2224 28.6587 81.2971 28.776C81.3824 28.8827 81.5584 28.936 81.8251 28.936H88.6411V30.584H81.5211C81.0411 30.584 80.6357 30.5467 80.3051 30.472C79.9744 30.3973 79.7024 30.2693 79.4891 30.088C79.2864 29.9173 79.1371 29.688 79.0411 29.4C78.9451 29.112 78.8971 28.7547 78.8971 28.328V24.568ZM84.1451 16.232V22.568C83.2064 22.856 82.3584 23.0907 81.6011 23.272C80.8437 23.4427 80.1664 23.528 79.5691 23.528C77.7771 23.528 76.8811 22.7813 76.8811 21.288V16.232H79.0571V18.168H81.9691V16.232H84.1451ZM81.9691 21.576V19.832H79.0571V21.096C79.0571 21.3627 79.1104 21.56 79.2171 21.688C79.3344 21.8053 79.5317 21.864 79.8091 21.864C80.1824 21.864 80.5291 21.8373 80.8491 21.784C81.1691 21.7307 81.5424 21.6613 81.9691 21.576ZM103.079 30.424H94.8073C94.21 30.424 93.7566 30.2693 93.4473 29.96C93.1486 29.6613 92.9993 29.2293 92.9993 28.664V26.024H95.2873V28.264C95.2873 28.4133 95.3193 28.536 95.3833 28.632C95.458 28.7173 95.5913 28.76 95.7833 28.76H103.079V30.424ZM91.1753 24.888V23.224H104.599V24.888H91.1753ZM97.8953 22.52C97.3086 22.52 96.7593 22.44 96.2473 22.28C95.7353 22.1093 95.2873 21.88 94.9033 21.592C94.5193 21.2933 94.2153 20.9413 93.9913 20.536C93.778 20.12 93.6713 19.6667 93.6713 19.176C93.6713 18.6853 93.778 18.2373 93.9913 17.832C94.2153 17.4267 94.5193 17.0747 94.9033 16.776C95.2873 16.4773 95.7353 16.248 96.2473 16.088C96.7593 15.9173 97.3086 15.832 97.8953 15.832C98.482 15.832 99.0313 15.9173 99.5433 16.088C100.055 16.248 100.503 16.4773 100.887 16.776C101.271 17.0747 101.57 17.4267 101.783 17.832C102.007 18.2373 102.119 18.6853 102.119 19.176C102.119 19.6667 102.007 20.12 101.783 20.536C101.57 20.9413 101.271 21.2933 100.887 21.592C100.503 21.88 100.055 22.1093 99.5433 22.28C99.0313 22.44 98.482 22.52 97.8953 22.52ZM97.8953 17.448C97.554 17.448 97.25 17.5013 96.9833 17.608C96.7273 17.7147 96.514 17.8533 96.3433 18.024C96.1726 18.184 96.0446 18.3653 95.9593 18.568C95.874 18.7707 95.8313 18.9733 95.8313 19.176C95.8313 19.3787 95.874 19.5813 95.9593 19.784C96.0446 19.9867 96.1726 20.1733 96.3433 20.344C96.514 20.504 96.7273 20.6373 96.9833 20.744C97.25 20.8507 97.554 20.904 97.8953 20.904C98.2366 20.904 98.5353 20.8507 98.7913 20.744C99.058 20.6373 99.2766 20.504 99.4473 20.344C99.618 20.1733 99.746 19.9867 99.8313 19.784C99.9166 19.5813 99.9593 19.3787 99.9593 19.176C99.9593 18.9733 99.9166 18.7707 99.8313 18.568C99.746 18.3653 99.618 18.184 99.4473 18.024C99.2766 17.8533 99.058 17.7147 98.7913 17.608C98.5353 17.5013 98.2366 17.448 97.8953 17.448ZM119.802 15.832H122.01V20.84H124.106V22.568H122.01V30.008H119.802V15.832ZM117.914 25.848C117.434 25.976 116.981 26.0933 116.554 26.2C116.128 26.3067 115.712 26.3973 115.306 26.472C114.901 26.5467 114.49 26.6053 114.074 26.648C113.669 26.6907 113.237 26.712 112.778 26.712C111.904 26.712 111.29 26.5253 110.938 26.152C110.586 25.768 110.41 25.1973 110.41 24.44V16.856H117.162C117.664 16.856 117.914 17.1013 117.914 17.592V25.848ZM115.706 18.552H112.618V24.216C112.618 24.5253 112.672 24.7387 112.778 24.856C112.885 24.9627 113.104 25.016 113.434 25.016C113.818 25.016 114.186 25 114.538 24.968C114.901 24.9253 115.29 24.8613 115.706 24.776V18.552ZM131.521 21.88C130.934 21.88 130.385 21.8107 129.873 21.672C129.361 21.5333 128.913 21.3307 128.529 21.064C128.145 20.7973 127.841 20.472 127.617 20.088C127.403 19.704 127.297 19.2667 127.297 18.776C127.297 18.2853 127.403 17.848 127.617 17.464C127.841 17.08 128.145 16.7547 128.529 16.488C128.913 16.2213 129.361 16.0187 129.873 15.88C130.385 15.7413 130.934 15.672 131.521 15.672C132.107 15.672 132.657 15.7413 133.169 15.88C133.681 16.0187 134.129 16.2213 134.513 16.488C134.897 16.7547 135.195 17.08 135.409 17.464C135.633 17.848 135.745 18.2853 135.745 18.776C135.745 19.2667 135.633 19.704 135.409 20.088C135.195 20.472 134.897 20.7973 134.513 21.064C134.129 21.3307 133.681 21.5333 133.169 21.672C132.657 21.8107 132.107 21.88 131.521 21.88ZM131.521 17.272C131.179 17.272 130.875 17.3147 130.609 17.4C130.353 17.4853 130.139 17.6027 129.969 17.752C129.798 17.8907 129.67 18.0507 129.585 18.232C129.499 18.4027 129.457 18.584 129.457 18.776C129.457 18.968 129.499 19.1547 129.585 19.336C129.67 19.5067 129.798 19.6667 129.969 19.816C130.139 19.9547 130.353 20.0667 130.609 20.152C130.875 20.2373 131.179 20.28 131.521 20.28C131.862 20.28 132.161 20.2373 132.417 20.152C132.683 20.0667 132.902 19.9547 133.073 19.816C133.243 19.6667 133.371 19.5067 133.457 19.336C133.542 19.1547 133.585 18.968 133.585 18.776C133.585 18.584 133.542 18.4027 133.457 18.232C133.371 18.0507 133.243 17.8907 133.073 17.752C132.902 17.6027 132.683 17.4853 132.417 17.4C132.161 17.3147 131.862 17.272 131.521 17.272ZM136.353 30.056C136.342 30.2373 136.294 30.3707 136.209 30.456C136.134 30.5413 136.001 30.584 135.809 30.584H128.641C127.979 30.584 127.473 30.4507 127.121 30.184C126.779 29.9173 126.609 29.4373 126.609 28.744V25.336H135.601C136.102 25.336 136.353 25.5707 136.353 26.04V30.056ZM134.145 28.952V26.968H128.817V28.344C128.817 28.536 128.843 28.6853 128.897 28.792C128.95 28.8987 129.067 28.952 129.249 28.952H134.145ZM138.209 22.68V24.296H124.785V22.68H138.209Z" fill="black"/>
<path d="M330 37H235V43H330V37Z" fill="#BABABA" mask="url(#path-4-inside-2_516_1964)"/>
<path d="M263.305 16.536V23.88C262.676 23.944 262.052 23.9973 261.433 24.04C260.825 24.072 260.228 24.0987 259.641 24.12V26.6H265.193V28.312H251.769V26.6H257.337V24.168H256.153C254.393 24.168 253.513 23.336 253.513 21.672V16.536H255.753V18.6H261.065V16.536H263.305ZM255.753 20.376V21.368C255.753 21.7627 255.828 22.0453 255.977 22.216C256.137 22.3867 256.42 22.472 256.825 22.472C257.39 22.472 258.004 22.4667 258.665 22.456C259.326 22.4453 260.126 22.424 261.065 22.392V20.376H255.753ZM276.911 26.056V21.464H275.631V25.896H273.599V15.992H275.631V19.768H276.911V15.832H279.007V26.056H276.911ZM279.327 30.424H271.391C270.687 30.424 270.143 30.2747 269.759 29.976C269.386 29.6773 269.199 29.1867 269.199 28.504V25.224H271.487V28.072C271.487 28.3067 271.525 28.4773 271.599 28.584C271.674 28.6907 271.845 28.744 272.111 28.744H279.327V30.424ZM273.023 23.16C272.81 23.2347 272.549 23.3147 272.239 23.4C271.93 23.4747 271.605 23.544 271.263 23.608C270.922 23.672 270.575 23.7253 270.223 23.768C269.882 23.8107 269.562 23.832 269.263 23.832C268.389 23.832 267.743 23.624 267.327 23.208C266.922 22.7813 266.719 22.1893 266.719 21.432V16.408H268.815V21.256C268.815 21.5547 268.879 21.784 269.007 21.944C269.135 22.0933 269.402 22.168 269.807 22.168C270.234 22.168 270.698 22.1467 271.199 22.104C271.701 22.0613 272.239 21.9813 272.815 21.864L273.023 23.16ZM294.802 15.832H297.01V20.84H299.106V22.568H297.01V30.008H294.802V15.832ZM292.914 25.848C292.434 25.976 291.981 26.0933 291.554 26.2C291.128 26.3067 290.712 26.3973 290.306 26.472C289.901 26.5467 289.49 26.6053 289.074 26.648C288.669 26.6907 288.237 26.712 287.778 26.712C286.904 26.712 286.29 26.5253 285.938 26.152C285.586 25.768 285.41 25.1973 285.41 24.44V16.856H292.162C292.664 16.856 292.914 17.1013 292.914 17.592V25.848ZM290.706 18.552H287.618V24.216C287.618 24.5253 287.672 24.7387 287.778 24.856C287.885 24.9627 288.104 25.016 288.434 25.016C288.818 25.016 289.186 25 289.538 24.968C289.901 24.9253 290.29 24.8613 290.706 24.776V18.552ZM306.521 21.88C305.934 21.88 305.385 21.8107 304.873 21.672C304.361 21.5333 303.913 21.3307 303.529 21.064C303.145 20.7973 302.841 20.472 302.617 20.088C302.403 19.704 302.297 19.2667 302.297 18.776C302.297 18.2853 302.403 17.848 302.617 17.464C302.841 17.08 303.145 16.7547 303.529 16.488C303.913 16.2213 304.361 16.0187 304.873 15.88C305.385 15.7413 305.934 15.672 306.521 15.672C307.107 15.672 307.657 15.7413 308.169 15.88C308.681 16.0187 309.129 16.2213 309.513 16.488C309.897 16.7547 310.195 17.08 310.409 17.464C310.633 17.848 310.745 18.2853 310.745 18.776C310.745 19.2667 310.633 19.704 310.409 20.088C310.195 20.472 309.897 20.7973 309.513 21.064C309.129 21.3307 308.681 21.5333 308.169 21.672C307.657 21.8107 307.107 21.88 306.521 21.88ZM306.521 17.272C306.179 17.272 305.875 17.3147 305.609 17.4C305.353 17.4853 305.139 17.6027 304.969 17.752C304.798 17.8907 304.67 18.0507 304.585 18.232C304.499 18.4027 304.457 18.584 304.457 18.776C304.457 18.968 304.499 19.1547 304.585 19.336C304.67 19.5067 304.798 19.6667 304.969 19.816C305.139 19.9547 305.353 20.0667 305.609 20.152C305.875 20.2373 306.179 20.28 306.521 20.28C306.862 20.28 307.161 20.2373 307.417 20.152C307.683 20.0667 307.902 19.9547 308.073 19.816C308.243 19.6667 308.371 19.5067 308.457 19.336C308.542 19.1547 308.585 18.968 308.585 18.776C308.585 18.584 308.542 18.4027 308.457 18.232C308.371 18.0507 308.243 17.8907 308.073 17.752C307.902 17.6027 307.683 17.4853 307.417 17.4C307.161 17.3147 306.862 17.272 306.521 17.272ZM311.353 30.056C311.342 30.2373 311.294 30.3707 311.209 30.456C311.134 30.5413 311.001 30.584 310.809 30.584H303.641C302.979 30.584 302.473 30.4507 302.121 30.184C301.779 29.9173 301.609 29.4373 301.609 28.744V25.336H310.601C311.102 25.336 311.353 25.5707 311.353 26.04V30.056ZM309.145 28.952V26.968H303.817V28.344C303.817 28.536 303.843 28.6853 303.897 28.792C303.95 28.8987 304.067 28.952 304.249 28.952H309.145ZM313.209 22.68V24.296H299.785V22.68H313.209Z" fill="black"/>
</svg>
